<svg width="26" height="15" viewBox="0 0 26 15" fill="none" xmlns="http://www.w3.org/2000/svg">
<path d="M11.1379 0.176758C11.8046 1.34342 13.1379 3.77676 13.1379 4.17676C13.6379 3.01009 14.7379 0.576758 15.1379 0.176758" stroke="#005A63" stroke-width="0.5"/>
<path d="M12.1379 7.87618C10.8046 5.70951 6.73794 1.57618 1.13794 2.37618C2.63794 3.70959 5.13794 6.87641 4.63794 9.37641C4.30461 10.8764 4.13794 14.3764 7.63794 14.3764C8.63794 14.3764 10.7046 13.8764 11.6379 11.8764C12.8046 9.37641 15.9713 5.37657 17.1379 4.37641C18.3046 3.37625 21.4379 1.57599 24.6379 2.37618C23.4713 3.37611 21.2379 6.17598 21.6379 9.37598C21.8046 11.0426 21.3379 14.376 18.1379 14.376C17.1379 14.376 14.9379 13.776 14.1379 11.376" stroke="#005A63"/>
</svg>
